<mxfile host="app.diagrams.net" modified="2021-03-19T13:19:43.227Z" agent="5.0 (Windows NT 10.0; Win64; x64) AppleWebKit/537.36 (KHTML, like Gecko) Chrome/89.0.4389.90 Safari/537.36" etag="ANDcbwakQLn5BqO8pNtu" version="14.4.9" type="github">
  <diagram id="2C5HO1Kw2VwO68wzlwNI" name="Page-1">
    <mxGraphModel dx="1422" dy="794" grid="1" gridSize="10" guides="1" tooltips="1" connect="1" arrows="1" fold="1" page="1" pageScale="1" pageWidth="827" pageHeight="1169" math="0" shadow="0">
      <root>
        <mxCell id="0" />
        <mxCell id="1" parent="0" />
        <mxCell id="QxQ_9_1hC1-MCF_Mkl6m-2" value="BaÅŸla" style="ellipse;whiteSpace=wrap;html=1;" vertex="1" parent="1">
          <mxGeometry x="370" y="50" width="120" height="80" as="geometry" />
        </mxCell>
        <mxCell id="QxQ_9_1hC1-MCF_Mkl6m-5" value="" style="edgeStyle=orthogonalEdgeStyle;rounded=0;orthogonalLoop=1;jettySize=auto;html=1;" edge="1" parent="1" source="QxQ_9_1hC1-MCF_Mkl6m-3">
          <mxGeometry relative="1" as="geometry">
            <mxPoint x="430" y="300" as="targetPoint" />
          </mxGeometry>
        </mxCell>
        <mxCell id="QxQ_9_1hC1-MCF_Mkl6m-3" value="Sayi1" style="shape=parallelogram;perimeter=parallelogramPerimeter;whiteSpace=wrap;html=1;fixedSize=1;" vertex="1" parent="1">
          <mxGeometry x="370" y="160" width="120" height="60" as="geometry" />
        </mxCell>
        <mxCell id="QxQ_9_1hC1-MCF_Mkl6m-11" value="" style="edgeStyle=orthogonalEdgeStyle;rounded=0;orthogonalLoop=1;jettySize=auto;html=1;" edge="1" parent="1" source="QxQ_9_1hC1-MCF_Mkl6m-6" target="QxQ_9_1hC1-MCF_Mkl6m-7">
          <mxGeometry relative="1" as="geometry" />
        </mxCell>
        <mxCell id="QxQ_9_1hC1-MCF_Mkl6m-6" value="Sayi2" style="shape=parallelogram;perimeter=parallelogramPerimeter;whiteSpace=wrap;html=1;fixedSize=1;" vertex="1" parent="1">
          <mxGeometry x="370" y="300" width="120" height="60" as="geometry" />
        </mxCell>
        <mxCell id="QxQ_9_1hC1-MCF_Mkl6m-12" value="" style="edgeStyle=orthogonalEdgeStyle;rounded=0;orthogonalLoop=1;jettySize=auto;html=1;" edge="1" parent="1" source="QxQ_9_1hC1-MCF_Mkl6m-7" target="QxQ_9_1hC1-MCF_Mkl6m-10">
          <mxGeometry relative="1" as="geometry" />
        </mxCell>
        <mxCell id="QxQ_9_1hC1-MCF_Mkl6m-7" value="Sayi1 + Sayi2" style="shape=document;whiteSpace=wrap;html=1;boundedLbl=1;" vertex="1" parent="1">
          <mxGeometry x="370" y="410" width="120" height="80" as="geometry" />
        </mxCell>
        <mxCell id="QxQ_9_1hC1-MCF_Mkl6m-10" value="Son" style="ellipse;whiteSpace=wrap;html=1;" vertex="1" parent="1">
          <mxGeometry x="370" y="530" width="120" height="80" as="geometry" />
        </mxCell>
      </root>
    </mxGraphModel>
  </diagram>
</mxfile>
